<?xml version="1.0" encoding="UTF-8"?>
<svg id="Capa_1" data-name="Capa 1" xmlns="http://www.w3.org/2000/svg" viewBox="0 0 2000 2000">
  <defs>
    <style>
      .cls-1 {
        fill: #fff;
      }
    </style>
  </defs>
  <path class="cls-1" d="M1523.97,1516.11h-137.23c-204.01,0-408.02,0-612.03,0-4.21,0-8.43,.1-12.64-.02-19.47-.54-31.92-10.88-32.3-26.76-.4-16.77,12.05-27.35,32.93-27.37,150.45-.08,300.9-.07,451.34-.08,102.26,0,204.53,0,308.57,0,.49-5.76,1.3-10.87,1.3-15.98,.03-155.26-.03-310.53-.06-465.79,0-4.81-.3-9.68,.31-14.43,1.98-15.47,13.3-25.49,27.97-25.18,14.54,.31,25.43,10.78,25.7,26.98,.61,37.3,.39,74.62,.39,111.93,.02,155.26-.24,310.52,.11,465.79,.18,79.3-32.83,139.17-102.6,177.3-16.64,9.1-35.57,14-56.51,22.01,0,3.65,0,10.06,0,16.46-.04,42.13-.08,84.25-.13,126.38-.03,28.54-8.12,37.03-35.94,37.03-255.77,.04-511.54,.04-767.31,0-26.04,0-34.85-8.81-34.88-34.41-.07-48.7-.02-97.39-.02-145.37-19.5-7.53-38.71-12.83-55.87-21.96-65.38-34.81-102.04-89.78-102.57-164.05-1.36-190.76-.58-381.53-.63-572.3-.02-63.19,.45-126.38-.01-189.56-1.4-192,121.11-335.54,311.13-364.09,1.14-.17,2.21-.88,5.58-2.28,0-28.37,0-57.72,0-87.07,0-6.01-.38-12.07,.17-18.04,1.51-16.34,11.56-26.03,26.56-26.17,14.87-.14,25.85,9.33,26.7,25.91,1.16,22.81,.54,45.71,.64,68.58,.05,11.35,0,22.7,0,35.3h104.89c.29-5.34,.81-10.56,.82-15.77,.09-49.35,.05-98.69,.14-148.04,.04-23.63,9.09-33.45,32.17-33.6,46.34-.31,92.68-.35,139.01,.02,22.25,.17,31.77,10.15,31.82,32.22,.13,54.64,.04,109.28,.04,165.19h104.53V130.82h-413.39c0,19.01,.04,37.46-.02,55.91-.03,7.81,.41,15.72-.58,23.42-2.03,15.73-13.43,25.5-28.24,24.36-15.64-1.21-24.47-10.6-24.78-25.79-.72-35.49-1-71.01-.18-106.49,.43-18.69,11.35-26.54,33.45-26.57,73.42-.11,146.84-.04,220.26-.04,75.23,0,150.45,0,225.68,0,37.04,0,43.2,6.24,43.17,42.58-.07,99.89-.01,199.79,.05,299.68,0,4.14,.54,8.27,.81,12.06,23.96,5.77,47.58,9.92,70.22,17.16,147.38,47.09,244.23,179.18,245.61,333.96,.18,20.46,.12,40.92,.03,61.38-.1,21.18-9.74,33.56-26.38,34.18-16.75,.63-27.33-12.68-27.85-34.83-.74-31.85-1.51-63.7-2.45-95.55-.1-3.54-1.36-7.04-2.33-11.74H476.91c-1.89,241.81-.16,483.34-.91,726.36,6.32,.36,11.51,.9,16.7,.92,46.94,.11,93.88,0,140.82,.21,20.5,.09,31.67,9.42,32.08,26.06,.42,17-11.75,27.86-32.49,27.98-45.74,.27-91.47,.14-137.21,.18-5.89,0-11.78,0-17.38,0-18.54,96.54,44.08,173.59,140.51,173.68,253.37,.23,506.75,.13,760.12,.05,88.25-.03,144.15-55.82,144.81-144.13,.07-8.98,0-17.96,0-29.7Zm-18.48-837.58c-3.83-9-6.59-16.82-10.35-24.12-56.65-109.93-147.26-168.01-270.49-169.78-149.77-2.16-299.59-.95-449.39-.32-70.83,.3-134.74,22.15-189.83,67.53-41.1,33.84-71.53,75.29-90.71,126.69h1010.77Zm-142.04,1190.92v-124.07H636.21v124.07h727.24ZM1046.09,429.5v-142.97h-92.21v142.97h92.21Z"/>
  <path class="cls-1" d="M890.26,1011.11c17.25-92.98,70.45-156.47,152.09-197.62,31.39-15.82,47.1-6.72,51.65,28.21,8.2,62.92,36.6,117.58,70.23,170.09,16.49,25.75,36.37,50.27,47.79,78.18,60.66,148.19-54.71,311.38-216.5,308.37-136.38-2.53-238.39-120.7-220.89-259.97,5.17-41.18,19.75-81.35,31.97-121.39,6-19.68,18.45-24.19,38.46-18.77,14.45,3.91,28.8,8.2,45.21,12.89Zm151.65-134.26c-2.36,1.21-5.09,2.23-7.4,3.85-54.96,38.41-87.17,90.11-91.81,157.78-2.11,30.72-15.41,39.98-45.5,31.41-15.47-4.41-30.93-8.84-46.13-13.2-35.05,77.42-34.92,178.83,19.1,225.61,3.84-23.17,5.66-48.44,12.52-72.25,10.73-37.2,15.59-39.26,52.93-38.35,12.46-40.48,38.87-69.57,76.01-89.34,26.9-14.31,41.59-5.92,50.04,23.42,7.56,26.25,15.62,53.71,30.21,76.27,20.64,31.91,39.4,62.77,33.98,106.96,6.01-6.51,8.92-9.25,11.36-12.36,44.12-56.18,48.52-142.79,6.07-200.13-44.03-59.47-85.24-121.12-98.49-196.39-.17-.98-1.5-1.75-2.9-3.3Zm-111.23,354.15c-.91,17.97-4.15,35.28-2.12,51.95,3.59,29.44,21.68,49.61,49.99,57.85,29.41,8.56,56.16,1.97,76.68-22.12,19.35-22.7,24.51-49.67,11.28-75.67-16.35-32.11-37.24-61.91-56.32-92.96-14.47,13.48-22.49,31.55-24.76,52.65-3.17,29.47-14.6,37.15-43.92,30.08-2.26-.55-4.61-.78-10.82-1.79Z"/>
</svg>