<?xml version="1.0" encoding="UTF-8"?>
<svg id="Capa_1" data-name="Capa 1" xmlns="http://www.w3.org/2000/svg" viewBox="0 0 2000 2000">
  <defs>
    <style>
      .cls-1 {
        fill: #fff;
      }
    </style>
  </defs>
  <path class="cls-1" d="M115.58,1768.46c12.06-50.98,62.76-97.65,90.5-137.34,30.92-44.23,63.69-87.19,96.38-130.16,7.05-9.27,7.55-16.77,3.69-27.36-26.59-72.9-53.15-145.83-78.32-219.23-9.38-27.34-16.42-55.69-21.93-84.08-5.48-28.24-3.01-56.59,7.04-84.1,39.43-107.96,78.56-216.02,117.88-324.02,1.73-4.74,17.1-43.44,20.86-51.67,9.28,83.59,4.6,170.22,14.26,249.44,3.35,27.48,6.21,56.1,16.19,81.48,28.82,73.29,105.65,109.19,182.19,88.68,4.95-1.33,9.96-2.46,17.6-4.34-7.25,20.73-13.63,65.97-20.8,86.48,19.55,12.2,39.43,24.7,59.4,37.05,48.92,30.26,97.71,60.76,146.89,90.6,42.2,25.61,62.03,62.36,57.59,111.66-10,111.07-20.82,222.06-30.05,333.19-5.88,70.71-71.07,129.79-143.75,104.97-57.07-19.49-76.29-81.65-70.77-136.06,8.44-83.21,15.66-166.54,23.12-249.84,.38-4.22-.3-10.92-2.97-12.66-23.35-15.26-47.27-29.65-71.02-44.29,23.69,56.93,7.31,102.53-27.35,147.41-46.8,60.6-91.99,122.41-137.01,184.34-38.57,53.06-106.77,139.57-184.2,108.53-33.9-13.59-67.73-59.55-68.04-96.24-.06-7.56,.87-15.04,2.62-22.44Z"/>
  <path class="cls-1" d="M1845.98,1589.94c-20.8,29.05-49.34,39.4-84.59,39.28-181.53-.64-363.05-.2-544.58-.22-59.74,0-92.06-32.86-91.94-92.74,.13-68.22,.07-136.44-.04-204.65-.1-59,31.66-91.6,90.8-91.67,177.96-.21,355.93,.53,533.89-.54,38.12-.23,71.52,5.85,96.46,37.07v313.47Z"/>
  <path class="cls-1" d="M1078.53,1685.58c34.65,0,67.76,0,100.87,0,198.82,0,397.65-.05,596.47,.05,37.54,.02,60.47,14.96,68.82,43.94,11.07,38.4-15.06,76.03-54.9,78.22-17.76,.97-35.61,.85-53.39,.42-9.56-.23-14.39,2.39-17.99,12.32-16.06,44.36-52.15,69.44-97.25,69.27-43.62-.16-78.77-25.54-95.24-69.58-3.12-8.33-6.9-12.07-16.34-12.02-68.85,.37-137.7-.05-206.54,.63-5.03,.05-12.62,5.7-14.59,10.55-18.23,44.96-52.51,70.32-97.03,70.41-45.02,.09-80.05-24.73-96.83-69.77-3.22-8.64-7.19-12.14-16.38-11.88-18.98,.54-37.98,.22-56.97,.06-42.56-.36-67.27-24.61-67.46-67.61-.4-91.4-.21-182.8-.2-274.2,0-135.32,.07-270.64,.06-405.96,0-5.28-.46-10.57-.83-18.64-7.92,0-15.39,0-22.86,0-37.98,.06-75.98-.24-113.95,.32-20.03,.29-36.95-5.23-51.8-19.21-3.63-3.42-12.89-4.15-18.03-2.16-59.11,22.89-117.95,46.45-176.8,70-73.2,29.3-132.45-7.85-139.99-86.05-7.69-79.67-18.45-159.05-25.95-238.74-2.06-21.83-1.47-45.7,5.33-66.17,12.6-37.93,52.8-60.14,91.74-56.43,40.99,3.91,75.85,33.95,81.96,74.65,7.48,49.81,12.17,100.04,18.08,150.09,.33,2.83,.84,5.64,1.56,10.43,36.64-14.65,72.25-28.93,107.89-43.11,25.87-10.3,52.15-19.66,77.6-30.89,37.5-16.56,73.68-18.78,107.17,8.08,33.42,26.81,40.37,62.41,29.16,106.25,12.33,0,23.23,.03,34.13,0,17.21-.05,34.43-.59,51.63-.13,43.79,1.19,67.72,25.52,67.95,69.53,.31,58.75,.05,117.51,.05,176.27,0,168.55,0,337.11,.04,505.66,0,4.12,.41,8.23,.8,15.38Z"/>
  <path class="cls-1" d="M1363.59,1194.47c-51,0-102.01,.57-153-.16-52.68-.76-84.84-33.21-85.36-86.27-.61-63.45-.48-126.91,.09-190.36,.48-53.67,33.41-86.8,86.82-87.04,103.19-.46,206.38-.47,309.57-.05,47.53,.2,82.56,33.85,83.35,81.55,1.13,67.59,1.17,135.22-.13,202.81-.91,47.31-36.23,79.31-84.78,79.59-52.18,.3-104.37,.07-156.56,.07,0-.04,0-.09,0-.13Z"/>
  <path class="cls-1" d="M856.04,285.05c.45,116.24-92.68,208.98-210.52,209.63-113.82,.63-209.31-95.46-208.66-209.97,.65-113.74,95.26-208.88,208.03-209.21,116.31-.34,210.69,93.33,211.14,209.56Z"/>
  <path class="cls-1" d="M390.31,641.62c2.93-22.78,13.98-43.8,31.16-59.04,40.97-36.34,101.35-53.77,155.86-42.96,94.3,18.71,157.85,104.97,148.07,200.46-1.68,16.42-10.92,19.49-24.55,33.5-14.38,14.78-37.81,40.67-54.36,47.07-3.69-27.76-5.98-54.28-10.88-80.3-22.12-117.45-150.01-167-245.36-95.5-.32,.24-.22-1.08,.05-3.23Z"/>
</svg>