<?xml version="1.0" encoding="UTF-8"?>
<svg id="Capa_1" data-name="Capa 1" xmlns="http://www.w3.org/2000/svg" viewBox="0 0 2000 2000">
  <defs>
    <style>
      .cls-1 {
        fill: #fff;
      }
    </style>
  </defs>
  <path class="cls-1" d="M784.86,980.13c-79.13,49.61-113.5,116.13-112.07,205.57,2.52,157.6,.7,315.28,.7,476.94h-99.86v-73.35c0-126.38,2.68-252.84-.76-379.13-3.36-123.05,34.35-224.74,139.82-300.76-62.5-100.06-88.29-205.74-52.26-320.86,25.16-80.41,73.06-144,142.19-190.83,135.33-91.68,317.03-77.46,437.68,32.73,132.21,120.74,152.31,294.59,52.06,472.79,17.32,16.34,41.19,30.34,52.52,51.17,31.39,57.75,78.02,117.05,81.88,178.07,11.04,174.7,3.89,350.55,3.89,530.01h-95.34c0-47.02,0-93.7,0-140.38,0-112.56,3.87-225.32-1.88-337.58-2.4-46.95-16.87-97.81-40.7-138.11-39.41-66.63-61.57-67.11-130.2-33.82-130.72,63.4-255.79,48.77-377.65-32.46Zm474.37-284.22c.61-141.88-117.5-260.98-258.65-260.82-138.6,.16-256.02,116.32-258.44,255.65-2.45,141.23,115.2,262.29,256.21,263.64,141.47,1.35,260.27-116.36,260.88-258.47Z"/>
  <path class="cls-1" d="M1898.81,1369.22h-93.71c0-79.64,.17-157.86-.1-236.08-.08-23.65,1.11-47.7-2.64-70.86-8.64-53.27-34.93-67-85.08-47.32-94.88,37.25-201.97,12.7-264.65-60.69-66.23-77.54-75.25-189.79-22.11-275.01,53.29-85.45,149.59-125.07,250.78-103.18,94.37,20.41,170.67,103.95,175.02,205.45,1.93,45.09-29.45,93.05-22.69,136.1,6.73,42.88,58.34,79.83,62.04,121.87,9.44,107.24,3.14,215.87,3.14,329.71Zm-270.92-434.52c72.41-.29,132.81-59.11,134.41-130.9,1.64-73.64-60.55-135.77-135.55-135.43-76.26,.35-133.85,59.78-132.33,136.55,1.45,73.2,59.94,130.07,133.46,129.78Z"/>
  <path class="cls-1" d="M202.36,1368.18H100.41c24.74-149.62-48.35-309.1,61.71-433.22-3.55-68.56-18.58-131.68-7.43-189.77,24.79-129.24,158.75-202.31,286.27-166.77,124.41,34.68,195.24,169.08,155.17,294.47-39.81,124.6-175.03,190.77-298.69,146.16-68.34-24.65-94.12-6.24-94.87,70.19-.9,92.08-.21,184.17-.21,278.94Zm173.59-433.46c72.3,.26,132.66-58.13,134.44-130.06,1.85-74.63-58.55-136.14-133.8-136.27-72.79-.13-133.04,57.63-135.28,129.69-2.27,73.14,60.03,136.37,134.63,136.64Z"/>
</svg>