<?xml version="1.0" encoding="UTF-8"?>
<svg id="Capa_1" data-name="Capa 1" xmlns="http://www.w3.org/2000/svg" viewBox="0 0 120 120">
  <defs>
    <style>
      .cls-1 {
        fill: #fff;
      }
    </style>
  </defs>
  <path class="cls-1" d="M80.5,16.2c-1.4-.6-3.1,0-3.7,1.5s0,3.1,1.5,3.7c16.6,7,27.5,22.7,28.5,40.6H13.2c.6-9.4,3.7-18.3,9.5-25.8,.9-1.2,.7-3-.5-4-1.2-.9-3-.7-4,.5-7.1,9.3-10.9,20.4-10.9,32.1,0,29.1,23.7,52.7,52.7,52.7s52.7-23.7,52.7-52.7-12.6-40.3-32.2-48.6Zm17.3,76.5c-2-1.2-6.6-3.6-14.6-5.4,1.9-8.1,2.7-15.8,2.9-19.8h20.8c-.6,9.4-3.9,18-9.1,25.1ZM13.1,67.6h20.8c.2,4,.9,11.7,2.7,19.8-7.9,1.8-12.4,4.1-14.4,5.3-5.3-7.1-8.6-15.8-9.1-25.1Zm26.5,0h17.7v17.5c-5.8,.1-10.8,.6-15,1.2-1.5-6.8-2.3-13.7-2.6-18.8Zm17.7,23.2v19.6c-6.6-1.6-10.9-9.5-13.6-18.5,3.8-.6,8.4-1,13.6-1.1Zm5.7,19.4v-19.5c5.1,.1,9.5,.5,13.3,1-2.7,8.8-7,16.5-13.3,18.4Zm0-25.1v-17.5h17.6c-.3,5.1-1.2,11.9-2.8,18.7-4.2-.6-9.1-1.1-14.8-1.2Zm-36.9,12c1.9-1,5.7-2.8,12.1-4.2,1.9,6.4,4.5,12.5,8.4,16.9-7.9-2.4-14.9-6.8-20.5-12.7Zm47,12.9c4-4.5,6.8-10.7,8.8-17.2,6.6,1.4,10.6,3.3,12.4,4.3-5.7,6-13,10.5-21.2,12.9Z"/>
  <g>
    <path class="cls-1" d="M87.8,37.1h-4.6v-6.2c0-1.7-1.4-3-3-3h-6v-8.8c0-1.7-1.4-3-3-3h-4.1v-4c0-1.7-1.4-3-3-3h-1.1V2.5h-9.4v6.5h-1.4c-1.7,0-3,1.4-3,3v4h-3.8c-1.7,0-3,1.4-3,3v4.5h-15.4c-1.7,0-3,1.4-3,3v39.8H90.8v-26.2c0-1.7-1.4-3-3-3Zm-9.4-4.4v4.4h-4.2v-4.4h4.2Zm-31.3-11.8h6.9v-7h8.3v7h7.2V61.6h-22.3V20.8Zm-18.4,7.5h13.6V61.6h-13.6V28.3Zm57.3,33.2h-11.8v-19.7h11.8v19.7Z"/>
    <rect class="cls-1" x="51.4" y="25.5" width="13.3" height="6"/>
    <rect class="cls-1" x="51.4" y="35.9" width="13.3" height="6"/>
    <rect class="cls-1" x="51.4" y="46.2" width="13.3" height="6"/>
    <rect class="cls-1" x="32.3" y="32.9" width="6" height="6"/>
    <rect class="cls-1" x="77.1" y="46.2" width="6" height="6"/>
    <rect class="cls-1" x="32.3" y="43.2" width="6" height="6"/>
  </g>
</svg>