<svg xmlns="http://www.w3.org/2000/svg" viewBox="0 0 63 63"><defs><style>.cls-1{fill:#2f373e;}.cls-2{fill:#fff;}.cls-3{fill:#00aef0;}</style></defs><g id="Capa_2" data-name="Capa 2"><g id="Capa_1-2" data-name="Capa 1"><circle class="cls-1" cx="31.5" cy="31.5" r="31.5"/><path class="cls-2" d="M9.91,26.78H4.77V23h15v3.75H14.64v13H9.91Z"/><path class="cls-2" d="M36.64,39.77l0-8.88-4.31,7.23h-2.1l-4.28-7v8.64H21.52V23h3.9l5.88,9.66L37,23h3.9L41,39.77Z"/><path class="cls-3" d="M43.32,38.12l1.32-2.92a9.81,9.81,0,0,0,5.52,1.74c2.3,0,3.23-.76,3.23-1.79,0-3.13-9.73-1-9.73-7.2,0-2.84,2.29-5.21,7.05-5.21a11.2,11.2,0,0,1,5.81,1.48l-1.19,2.94a9.52,9.52,0,0,0-4.64-1.31c-2.3,0-3.18.86-3.18,1.91,0,3.09,9.73,1,9.73,7.1,0,2.8-2.32,5.19-7.1,5.19A12,12,0,0,1,43.32,38.12Z"/></g></g></svg>