<?xml version="1.0" encoding="UTF-8"?><svg id="Capa_1" xmlns="http://www.w3.org/2000/svg" viewBox="0 0 120 120"><defs><style>.cls-1{fill:#fff;}</style></defs><g><path class="cls-1" d="M101.66,36.48s-36.4,9.66-69.72,43.46c0,0,.98,14.32-3.05,29.18-.21,.76,.81,1.21,1.23,.55,8.31-13.04,33.85-49.77,71.54-73.19Z"/><path class="cls-1" d="M31.58,78.3s25.02-29.12,70.87-42.83c.3-.09,.19-.53-.11-.48-11.31,1.92-47.12,9.76-88.02,36.58-.49,.32-.16,1.08,.41,.94,5.72-1.44,16.85-4.02,16.85,5.79Z"/><path class="cls-1" d="M14.63,67.88c10.04-6.61,43-26.43,88.52-34.63,0,0-43.68-3.21-69.17,13.72l-19.87,20.29c-.33,.35,.11,.89,.52,.62Z"/><path class="cls-1" d="M20.49,47.34c5.16-1,13.38-1.5,13.38-1.5,25.45-16.84,68.57-12.68,68.57-12.68-47.16-7.49-74.45,7.8-82.35,13.2-.49,.33-.17,1.09,.41,.98Z"/></g><path class="cls-1" d="M21.77,44.02c.11-.08,.23-.16,.35-.24,.03-.02,.06-.04,.09-.06l.04-.03c1-.68,2.2-1.45,3.61-2.26,1.15-2.19,2.52-4.28,4.07-6.23,1.22,.79,2.52,1.53,3.89,2.22,1.09-.47,2.24-.95,3.45-1.41-1.91-.82-3.79-1.77-5.51-2.91,.06-.08,.13-.17,.19-.25,.94-1.19,2.26-2.25,3.41-3.22,1.37-1.15,2.81-2.21,4.32-3.17,1.46-.93,2.98-1.76,4.55-2.49,1.55-.72,3.3-1.6,4.98-1.91-.9,.97-1.96,1.79-2.84,2.79-.96,1.08-1.85,2.23-2.66,3.42-1.44,2.12-2.65,4.39-3.68,6.73,1.15-.4,2.35-.8,3.6-1.18,4.06-7.99,9.78-12.87,15.98-13.5v9.97c.9-.13,1.82-.25,2.75-.37v-9.6c4.84,.5,9.38,3.58,13.08,8.7,1.09-.02,2.19-.03,3.31-.02-1.81-2.82-3.86-5.17-6.07-6.99,.31,.1,.63,.2,.94,.3,4.54,1.53,8.8,3.88,12.51,6.91,1.2,.07,2.43,.15,3.66,.24,0,0,0,0,0,0,.53,.04,1.06,.09,1.59,.13-7.79-7.79-18.54-12.62-30.4-12.62-18.34,0-34.03,11.54-40.2,27.74,.28-.2,.58-.42,.9-.64,.03-.02,.05-.04,.08-.05Z"/><path class="cls-1" d="M30.73,89.35s0-.1,0-.15c0-.05,0-.1,0-.14,0,0,0,0,0,0h0s0,0,0,0c.14-2.44,.15-4.5,.09-6.23-.55,.33-1.08,.67-1.59,1.02-2.49-3.31-4.43-6.98-5.77-10.87h0s0,0,0,0c-.71,0-1.49,.04-2.34,.11,0,0,0,0,0,0,0,0,0,0,0,0-.13,0-.26,.02-.39,.03-.04,0-.07,0-.11,0h0s0,0,0,0c0,0,0,0,0,0-.17,.02-.35,.03-.53,.05h0c2.13,6.57,5.79,12.46,10.58,17.23,.03-.36,.05-.72,.07-1.07Z"/><path class="cls-1" d="M99.01,39.89s0,0,0,0c0,0,0,0,0,0-.14,.09-.28,.18-.42,.28,0,0,0,0,0,0,0,0,0,0,0,0,0,0,0,0,0,0-.73,.48-1.5,.99-2.3,1.54,2.69,5.21,4.22,10.97,4.42,16.89h-13.85c-.06-3.18-.34-6.32-.82-9.37-.82,.64-1.65,1.29-2.5,1.97,.32,2.42,.51,4.9,.56,7.4h-9.43c-1.03,.9-2.07,1.82-3.12,2.76h12.55c-.12,5.95-1.03,11.79-2.64,17.04-5.84-1.94-12.38-3.02-19.09-3.16v-4.48c-.91,1.03-1.83,2.09-2.75,3.17v1.31c-.38,0-.76,.02-1.13,.03-.8,.95-1.6,1.91-2.4,2.89,1.17-.09,2.35-.14,3.53-.17v21.65c-4.91-.51-9.58-3.77-13.32-9.09-.59,.77-1.17,1.54-1.75,2.3,.89,1.2,1.82,2.31,2.81,3.31,.61,.62,1.33,1.16,1.92,1.79-.27-.04-.53-.1-.8-.18-1.39-.38-2.81-1.09-4.07-1.67-.57-.26-1.13-.54-1.68-.83-.46,.62-.91,1.22-1.36,1.82,0,0,0,0,0,0-.21,.28-.41,.55-.61,.82,6.04,3.23,12.93,5.07,20.24,5.07,23.71,0,43-19.29,43-43h0c0-7.26-1.81-14.09-4.99-20.09Zm-12.15,21.46h13.85c-.28,8.12-3.07,16.02-7.95,22.5-2.55-1.74-5.47-3.26-8.7-4.52,1.72-5.54,2.68-11.7,2.8-17.98Zm-3.68,20.59c2.92,1.15,5.54,2.51,7.85,4.06-.09,.1-.18,.21-.27,.31-.11,.13-.23,.26-.34,.38-4.58,5.04-10.47,8.89-16.94,11.03-.15,.05-.3,.1-.45,.15-.13,.04-.26,.08-.38,.12,.68-.56,1.35-1.17,2-1.83,3.49-3.54,6.42-8.43,8.54-14.21Zm-20.8-3.95c6.4,.13,12.65,1.16,18.21,3.01-3.98,10.87-10.81,17.86-18.21,18.64v-21.65Z"/><path class="cls-1" d="M18.5,60.06h0c.91-.97,1.88-1.98,2.86-3,.22-2.92,.75-5.79,1.59-8.57,0,0,0,0,0,0h0c-.35,.07-.7,.14-1.04,.21-.47,.1-.94,.04-1.35-.17-.02-.01-.05-.02-.07-.04-.05-.03-.09-.05-.14-.08-.02-.01-.04-.03-.06-.04-.04-.03-.07-.05-.11-.08-.17-.14-.32-.31-.43-.51-1.15,3.87-1.77,7.97-1.77,12.21,0,.2,0,.41,0,.61,.16-.18,.33-.35,.5-.53Z"/></svg>