<?xml version="1.0" encoding="UTF-8"?><svg id="Capa_1" xmlns="http://www.w3.org/2000/svg" viewBox="0 0 120 120"><defs><style>.cls-1{fill:#fff;}</style></defs><path class="cls-1" d="M100.7,35.53c-1.51,0-2.93,.75-3.79,2l-11.63,16.94s-9.38-17.15-9.48-17.3l-.55,7.68c-.2,2.87-2.44,4.96-5.32,4.96h-6.16c-1.75,.02-3.2,1.37-3.32,3.12l-2.26,31.53,8.44-.02c2.15,0,3.93-1.67,4.08-3.81l1.73-24.17,11.05,19.02h.28s13.85-19.15,13.85-19.15l-2.01,28.05,9.65-.02c2.15,0,3.93-1.67,4.08-3.81l3.22-45.03-11.88,.03Z"/><path class="cls-1" d="M32.66,39.68l-.4,7.87,12.37-.03h0s0,0,0,0l-2.08,31.1s.03-.02,.04-.03l-.42,5.91,9.72-.02c2.15,0,3.93-1.67,4.08-3.81l2.21-30.92c.09-1.27,1.15-2.26,2.42-2.26l8.57-.02c2.15,0,3.93-1.67,4.08-3.81l.58-8.06s-26.68,.06-36.98,.08c-2.24,0-4.08,1.76-4.2,4Z"/><path class="cls-1" d="M40.27,77c.06-.86-1.06-1.24-1.55-.52-1.5,2.21-3.23,3.8-5.06,4.56-.55,.23-1.11-.17-1.07-.74l.68-10.19c.03-.46,.43-.83,.89-.81,1.97,.08,3.86,.29,5.63,.6,.5,.09,.96-.27,1-.77l.04-.6c.05-.69-.44-1.29-1.12-1.4-1.74-.27-3.56-.45-5.43-.52-.43-.02-.76-.37-.73-.8l.26-3.84c.03-.44,.42-.8,.86-.8h5.87c.44-.02,.81-.36,.84-.8l.06-.88c.03-.49-.36-.9-.84-.9h-5.75c-.44,.02-.78-.35-.75-.79l.26-3.84c.03-.43,.4-.78,.83-.8,2.08-.09,4.12-.31,6.08-.65,.38-.07,.67-.39,.7-.78l.02-.37c.03-.49-.36-.9-.84-.9,0,0-11.6,.66-16.66-.8-.44-.13-.7-.57-.53-1.02,1.54-4.06,3.69-7.24,6.11-8.97,.21-.15,.35-.38,.36-.64,.04-.66,.09-1.47,.14-2.12,.04-.55-.45-.99-1-.89-11.81,2.14-21.29,12.04-22.08,23.92-.87,13.13,9.2,23.8,22.65,24.22,.32,.03,.64,.06,.96,.06s.67-.03,1-.07c2.52-.11,4.96-.58,7.28-1.34,.32-.11,.55-.41,.57-.75l.34-5.06Zm-23.69-31.32c1.98-2.05,4.32-3.77,6.92-5.04,.76-.37,1.45,.45,.97,1.15-.36,.51-.7,1.06-1.03,1.63-.81,1.39-1.52,2.92-2.13,4.55-.16,.43-.64,.68-1.06,.54-1.3-.46-2.48-.98-3.53-1.56-.45-.25-.51-.87-.13-1.26Zm-6.21,12.08c.51-3.03,1.66-5.88,3.3-8.41,.24-.38,.74-.5,1.1-.29,.45,.26,.91,.52,1.41,.76,1.04,.51,2.16,.96,3.35,1.36,.38,.13,.58,.51,.48,.91-.47,1.85-.82,3.79-1.04,5.78-.05,.43-.42,.77-.85,.77l-7.01,.02c-.48,0-.82-.42-.74-.9Zm2.95,13.05c-.39,.22-.87,.09-1.06-.28-1.3-2.53-2.07-5.37-2.18-8.4-.02-.48,.38-.9,.86-.9l7.01-.02c.43,0,.76,.34,.75,.77-.04,1.98,.05,3.92,.27,5.77,.05,.4-.21,.79-.6,.91-1.24,.4-2.43,.86-3.53,1.38-.53,.24-1.03,.5-1.51,.77Zm7.6,8.38c-2.43-1.26-4.54-2.97-6.25-5.01-.33-.39-.18-1.01,.3-1.26,1.13-.59,2.38-1.11,3.74-1.58,.44-.15,.88,.1,.99,.53,.4,1.63,.91,3.15,1.53,4.54,.26,.57,.53,1.11,.81,1.63,.39,.69-.41,1.52-1.12,1.15Zm9.01,1.05c-.04,.58-.67,.98-1.18,.74-2.85-1.33-5.1-4.93-6.31-9.8-.11-.45,.2-.92,.67-1.02,2.11-.43,4.36-.72,6.71-.83,.46-.02,.82,.35,.79,.8l-.67,10.11Zm.96-14.41c-.03,.43-.39,.78-.83,.8-2.57,.12-5.08,.43-7.45,.91-.45,.09-.87-.19-.92-.63-.17-1.55-.24-3.18-.22-4.87,0-.46,.4-.84,.86-.84l8.05-.02c.44,0,.78,.36,.75,.8l-.26,3.85Zm.53-8.02c-.03,.44-.41,.81-.86,.81l-8.05,.02c-.46,0-.8-.38-.75-.84,.2-1.69,.49-3.32,.87-4.87,.11-.45,.56-.73,1-.64,2.31,.48,4.77,.77,7.33,.88,.43,.02,.75,.37,.72,.8l-.26,3.85Z"/></svg>