<?xml version="1.0" encoding="UTF-8"?>
<svg id="Capa_1" data-name="Capa 1" xmlns="http://www.w3.org/2000/svg" viewBox="0 0 120 120">
  <defs>
    <style>
      .cls-1 {
        fill: #ffffff;
      }
    </style>
  </defs>
  <path class="cls-1" d="M109.6,52.5c0-1.1-.8-2-1.8-2.3l-11.5-3.3c-1.1-4.9-3-9.4-5.6-13.5l5.8-10.5c.5-.9,.4-2.1-.3-2.9-1.6-1.8-3.2-3.4-5-5-.8-.7-2-.8-2.9-.3l-10.4,5.8c-4.1-2.6-8.7-4.5-13.5-5.6l-3.3-11.5c-.3-1-1.2-1.8-2.3-1.8-1.1,0-2.3-.1-3.4-.1s-2.4,0-3.6,.1c-1.1,0-2,.8-2.3,1.8l-3.3,11.5c-4.9,1.1-9.4,3-13.5,5.6l-10.5-5.8c-.9-.5-2.1-.4-2.9,.3-1.8,1.6-3.4,3.2-5,5-.7,.8-.8,2-.3,2.9l5.8,10.4c-2.6,4.1-4.5,8.7-5.6,13.5l-11.5,3.3c-1,.3-1.8,1.2-1.8,2.3,0,1.1-.1,2.3-.1,3.4s0,2.4,.1,3.6c0,1.1,.8,2,1.8,2.3l11.5,3.3c1.1,4.9,3,9.4,5.6,13.5l-5.8,10.5c-.5,.9-.4,2.1,.3,2.9,1.6,1.8,3.2,3.4,5,5,.8,.7,2,.8,2.9,.3l10.4-5.8c4.1,2.6,8.7,4.5,13.5,5.6l3.3,11.5c.3,1,1.2,1.8,2.3,1.8,1.1,0,2.3,.1,3.4,.1s2.4,0,3.6-.1c1.1,0,2-.8,2.3-1.8l3.3-11.5c4.5-1,8.6-2.7,12.4-5l-9.4-9.4c-3.7,1.7-7.8,2.7-12.2,2.7-16.2,0-29.4-13.2-29.4-29.4s13.2-29.4,29.4-29.4,29.4,13.2,29.4,29.4-.6,6.8-1.7,9.9l9.7,9.7c1.7-3.3,3-6.8,3.8-10.5l11.5-3.3c1-.3,1.8-1.2,1.8-2.3,0-1.1,.1-2.3,.1-3.4s0-2.4-.1-3.6Z"/>
  <path class="cls-1" d="M118.6,98.9l-4.5-7.2c-1.6-2.5-4.4-4.1-7.5-4.1l-3.9-.2c-2.9-.1-5.6-1.3-7.6-3.3l-10.2-9.7-11.3-11.7c-1.5-1.7-2.3-3.9-2.4-6.2l-.4-5.5c-.2-6.1-5.3-10.8-11.4-10.6l-6.9,.2c-2.4,0-2.6,1.8-2,2.4l7.8,5.2c2.1,1.6,2.5,4.6,1,6.8l-3.2,4.4c-1.6,2.2-4.7,2.7-6.9,1l-6.4-4.4c-.5-.3-2.4,1.9-.4,3.9l4.5,7.2c1.6,2.5,4.4,4.1,7.5,4.1l3.9,.2c2.9,.1,5.6,1.3,7.6,3.3l10.2,9.7,11.3,11.7c1.5,1.7,2.3,3.9,2.4,6.2l.4,5.5c.2,6.1,5.3,10.8,11.4,10.6l6.9-.2c2.4,0,2.6-1.8,2-2.4l-7.8-5.2c-2.1-1.6-2.5-4.6-1-6.8l3.2-4.4c1.6-2.2,4.7-2.7,6.9-1l6.4,4.4c.5,.3,2.4-1.9,.4-3.9Z"/>
</svg>