<?xml version="1.0" encoding="UTF-8"?>
<svg id="Capa_1" data-name="Capa 1" xmlns="http://www.w3.org/2000/svg" viewBox="0 0 120 120">
  <defs>
    <style>
      .cls-1 {
        fill: #fff;
      }
    </style>
  </defs>
  <path class="cls-1" d="M46,91c0-7.2,6-13.1,13.2-13.1,7.2,0,13,6,12.9,13.3,0,7.1-6,12.9-13.1,12.8-7.2,0-13-5.9-13-13Zm13.1-8.5c-4.7,0-8.7,3.8-8.8,8.4,0,4.8,3.9,8.8,8.7,8.8,4.7,0,8.7-3.9,8.8-8.5,0-4.8-3.8-8.7-8.7-8.7Z"/>
  <path class="cls-1" d="M72.1,60.5c0,7.2-5.7,13-12.9,13-7.3,0-13.1-5.7-13.1-13,0-7.2,5.7-13,12.9-13,7.3,0,13.1,5.7,13.1,13Zm-13.1,8.7c4.8,0,8.8-4,8.8-8.7,0-4.6-4.1-8.6-8.7-8.7-4.6,0-8.8,4.1-8.8,8.8,0,4.6,4,8.6,8.7,8.6Z"/>
  <path class="cls-1" d="M59.1,16.9c7.3,0,13,5.7,13,12.9,0,7.4-5.7,13.1-13,13.1-7.2,0-13-5.7-13-12.9,0-7.4,5.7-13.1,13-13.1Zm0,4.3c-4.7,0-8.8,4-8.8,8.7,0,4.6,3.9,8.6,8.6,8.6,4.7,0,8.7-3.8,8.8-8.5,.1-4.8-3.8-8.8-8.6-8.9Z"/>
  <path class="cls-1" d="M75.4,117.5h-30.9c-6.5,0-11.8-5.3-11.8-11.8V14.3c0-6.5,5.3-11.8,11.8-11.8h30.9c6.5,0,11.8,5.3,11.8,11.8V105.7c0,6.5-5.3,11.8-11.8,11.8ZM44.6,8.8c-3,0-5.5,2.5-5.5,5.5V105.7c0,3,2.5,5.5,5.5,5.5h30.9c3,0,5.5-2.5,5.5-5.5V14.3c0-3-2.5-5.5-5.5-5.5h-30.9Z"/>
</svg>