<?xml version="1.0" encoding="UTF-8"?>
<svg id="Capa_1" data-name="Capa 1" xmlns="http://www.w3.org/2000/svg" viewBox="0 0 120 120">
  <defs>
    <style>
      .cls-1 {
        fill: #fff;
      }
    </style>
  </defs>
  <path class="cls-1" d="M39.2,93.8v-16.4c-7.9,6.7-14.9,13.2-18.3,16.4h18.3Z"/>
  <path class="cls-1" d="M114.2,44.8l-.7-18.7h-20.4l-7.3,21c11.7-2,21.9-2.6,28.4-2.3Z"/>
  <path class="cls-1" d="M38.5,65.8l.7-.5v-19.6h11.4l-.8,13.9h.3c3-1.6,6.2-3.2,9.8-4.7,6.4-2.9,13.4-4.9,19.7-6.4l-7.7-22.3H2.5v19.6H19.6v34.3c1.9-2,7.5-7.4,18.9-14.2Z"/>
  <path class="cls-1" d="M82.4,54.7l-1.5-3.1c-5.8,1.9-11.4,4.7-17.7,8.2-4.3,2.4-8.9,5.6-13.8,9.4l-2,24.6h20.4l.8-17.1,5.7,17.1h14.7l6.5-17.9,1.6,17.9h20.4l-3.3-47.9c-6.8,.4-17.4,1.5-29.6,4.7l-2.2,4.1Z"/>
</svg>