<?xml version="1.0" encoding="UTF-8"?>
<svg id="Capa_1" data-name="Capa 1" xmlns="http://www.w3.org/2000/svg" viewBox="0 0 2000 2000">
  <defs>
    <style>
      .cls-1 {
        fill: #fff;
      }
    </style>
  </defs>
  <path class="cls-1" d="M342.51,1267.88c63.22,171.88,292.37,328.76,488.01,332.1-24.18-84.04,4.13-156.67,59.2-215.85,31.14-33.46,77.28-52.79,116.05-79.38,20.05-13.75,45.57-25.47,56.97-44.92,71.72-122.44,156.5-130.9,243.32-21.42,54.85,69.17,104.93,62.44,135.96-19.81,12.95-34.32,18.63-71.46,32.47-105.33,5.66-13.86,24.17-22.48,36.83-33.49,6.19,15.48,19.7,32.1,17.49,46.28-40.31,258.68-269.71,486.15-529.12,526.99-304.85,47.99-570.16-84.5-714.2-358.04-12.29-23.35-24.63-35.03-52.75-39.43-40.59-6.34-81.81-18.54-118.73-36.52-79.26-38.59-104.41-116.18-55.11-189.05,33.38-49.34,80.24-91.08,126.59-129.58,28.35-23.55,47.6-45.74,57.62-82.5,104.97-384.95,547.01-589.18,909.06-421.55,5.82,2.7,11.7,5.33,17.28,8.49,20.11,11.38,51.45,18.68,34.38,51.05-14.74,27.95-37.51,10.8-58.59,2.91-47.92-17.93-96.51-34.13-145.15-50.06-36.22-11.86-67.41,2.62-80.06,34.3-7.45,18.66-1.65,51.74,11.26,67.9,81.89,102.54,69.65,130.69-25.88,215.11-45.4,40.13-64.37,86.55-55.6,149.56,26.14,187.83-86.44,228.36-246.81,215.71-121.45-9.59-156.89-79.06-95.79-184.69,22.58-39.04,39.77-74.95,6.18-114.09-38.3-44.63-85.22-75.47-146.79-65.45-15.38,2.5-34.13,19.83-40.76,34.97-58.99,134.61-64.65,272.91-25.33,414.28,9.18,33.01,30.95,31.29,55.53,30.16,171.68-7.92,337.33-46.5,496.23-109.24,113.15-44.67,221.84-100.66,332.47-151.71,7.26-3.35,14.22-11.19,21.04-10.88,15.49,.71,30.82,5.21,46.21,8.16-6.17,14.32-8.39,36.07-19.13,41.78-77.86,41.42-156.14,82.54-236.74,118.22-202.45,89.63-412.42,151.69-635.4,161.64-6.01,.27-11.94,2.18-18.19,3.39Zm43.18-613.59c42.16,17.23,79.91,27.37,112.04,46.8,82.33,49.81,134.33,141.41,60.63,234.72-6.79,8.59-10.92,19.65-14.75,30.13-11.51,31.5-4.41,54.95,31.97,59.86,31.64,4.27,63.77,7.83,95.59,7.2,94.85-1.89,134.5-39.29,120.15-131.23-16.1-103.19,17.66-179.45,96.89-239.75,41.72-31.76,40.74-60.53,6.54-98.29-42.39-46.82-65.35-100.3-21.06-167.14-209.02,10.34-368.52,95.47-488,257.7Zm977.36,707.5c-40.34-35.01-80.3-63.28-112.16-98.83-49.97-55.75-92.61-55.49-126.41,11.79-24.18,48.14-56.86,78.04-110.32,90.42-63.86,14.79-131.88,108.2-132.59,173.96-.49,44.88,18.83,67.62,57.09,62.92,177.9-21.88,321.97-102.75,424.38-240.27ZM209.44,953.41c-19.58,16.53-37.29,29.43-52.53,44.78-34.08,34.31-73.41,70.02-57.92,123.96,14.36,50.02,64.65,56.76,107.61,68.89,10.17,2.87,20.75,4.3,31.95,6.56-9.7-81.35-19-159.36-29.11-244.18Z"/>
  <path class="cls-1" d="M1590.3,876.95c-48.1,17.62-86.27,36.17-90.68,93.59-2.96,38.51-68.81,95.55-105.81,94.53-11.23-.31-28.33-14.65-31.76-25.9-8.33-27.35-13.58-56.63-13.9-85.2-.48-43.48-20.6-72.07-56.22-92.91-5.49-3.21-11.13-7.11-14.99-12.03-20.62-26.25-76.78-30.51-56.69-81.38,12.4-31.4,100.45-57.72,136.19-46.3q62.61,20,127.3-30.13c-67.56-44.66-134.35-88.33-200.6-132.8-42.15-28.3-39.24-44.16,1-73.91,51.9-38.36,100.29-42.5,159.21-13.3,65.82,32.62,137.87,52.45,204.71,83.28,36.88,17.01,65.01,14.7,97.03-8.1,47.06-33.5,98.13-53.3,158.23-36.84,55.26,15.13,78.78,49.21,51.94,99.76-20.65,38.91-52.15,79.86-89.54,100.21-53.53,29.13-73.18,66.7-78.83,123.4-7.94,79.71-22.04,158.83-34.55,238.04-5.28,33.46-83.17,98.77-114.56,91.4-13.45-3.16-29.63-27.12-31.19-42.96-6.94-70.28-8.97-141.04-12.93-211.62-.51-9.12-1.95-18.19-3.36-30.83Zm-242.98-363.58c-.22,5.18-.44,10.37-.66,15.55,66.99,44.2,134.4,87.8,200.82,132.85,37.77,25.61,36.97,43.31-1.38,67.5-21.7,13.69-46.13,23.49-66.38,38.92-40.71,31.01-81.64,38.64-128.98,15.34-13.12-6.46-31.27-2.72-47.1-3.65-3.1,5.55-6.21,11.09-9.31,16.64,93.06,31.61,115.59,105.49,123.55,191.11,14.05-13.47,26.93-26.27,27.03-39.17,.46-58.91,35.18-88.88,83.89-110.22,17.54-7.69,33.51-18.95,50.26-28.48,51.17-29.09,65.6-22.78,70.04,34.5,6.05,78,9.76,156.19,14.47,234.3,4.44,1.55,8.88,3.11,13.32,4.66,7.36-16.34,18.6-32.05,21.41-49.14,13.03-79.17,28.81-158.42,33.66-238.24,3.95-64.99,32.5-102.96,89.68-127.15,41.1-17.39,73.97-44.47,81.7-95.65-10.96-2.99-23.04-10.72-31.54-7.85-40.2,13.58-81.9,25.75-118.27,46.73-35.28,20.35-64.75,24.56-102.83,7.97-83.74-36.49-169.25-69.01-254.63-101.57-14.73-5.62-32.42-3.49-48.75-4.93Z"/>
</svg>